<svg xmlns="http://www.w3.org/2000/svg" width="22" height="22" viewBox="-.5 -.5 22 22" fill="none"><path d="M20.7633 10.618C20.7633 4.88435 16.1153 0.236328 10.3817 0.236328C4.64802 0.236328 0 4.88435 0 10.618C0 15.7998 3.79642 20.0947 8.75952 20.8735V13.6189H6.12355V10.618H8.75952V8.33077C8.75952 5.72887 10.3094 4.29166 12.6808 4.29166C13.8167 4.29166 15.0047 4.49443 15.0047 4.49443V7.04929H13.6956C12.406 7.04929 12.0038 7.84955 12.0038 8.67055V10.618H14.8831L14.4228 13.6189H12.0038V20.8735C16.9669 20.0947 20.7633 15.7998 20.7633 10.618Z" fill="#1877F2"/><path d="M14.4223 13.6183L14.8826 10.6173H12.0033V8.6699C12.0033 7.8489 12.4055 7.04864 13.6951 7.04864H15.0042V4.49378C15.0042 4.49378 13.8162 4.29102 12.6803 4.29102C10.3089 4.29102 8.75901 5.72823 8.75901 8.33013V10.6173H6.12305V13.6183H8.75901V20.8729C9.28757 20.9558 9.8293 20.999 10.3811 20.999C10.933 20.999 11.4747 20.9558 12.0033 20.8729V13.6183H14.4223Z" fill="white"/></svg>
